<svg width="39" height="48" viewBox="0 0 39 48" fill="none" xmlns="http://www.w3.org/2000/svg">
<path d="M26 24.375H13.8125L14.362 13.5495L19.7651 0.812531L25.0687 13.9314L26 24.375Z" fill="#1AA7A1"/>
<path d="M17.875 33.3125H12.1875L10.7159 33.9205L0.8125 47.125L17.875 41.4375V33.3125Z" fill="#009A95"/>
<path d="M17.875 41.4375L30.0625 29.25V17.0625L38.1875 18.6875L35.75 11.375L30.0625 8.93753L19.9062 19.0938L1.625 0.812531V24.375L10.7159 33.9205L17.875 41.4375Z" fill="#57C3C1"/>
<path d="M1.625 24.375L19.9062 19.0938L17.875 41.4375L1.625 24.375Z" fill="#1AA7A1"/>
<path d="M19.9062 19.0938L30.0625 29.25V8.93753L19.9062 19.0938Z" fill="#80CED0"/>
<path d="M38.9584 18.4306L36.5209 11.1181C36.4846 11.0092 36.4256 10.9093 36.3479 10.8248C36.2702 10.7404 36.1755 10.6734 36.0701 10.6281L30.3826 8.19064V8.19135C30.3795 8.19003 30.3769 8.1882 30.3738 8.18688C30.2254 8.12537 30.062 8.10927 29.9044 8.14062C29.7467 8.17196 29.602 8.24935 29.4883 8.36299L25.3623 12.489L20.5184 0.507843C20.4582 0.358895 20.3551 0.231153 20.2223 0.140765C20.0895 0.0503775 19.9328 0.00140201 19.7721 2.99633e-05H19.7651C19.6056 4.63816e-05 19.4496 0.0470139 19.3167 0.135077C19.1837 0.22314 19.0795 0.348403 19.0172 0.495249L14.0845 12.1229L2.1996 0.237991C2.08597 0.124355 1.94119 0.0469669 1.78358 0.015614C1.62597 -0.015739 1.46259 0.000351236 1.31413 0.0618499C1.16566 0.123349 1.03876 0.227493 0.949482 0.361114C0.860204 0.494734 0.812554 0.651828 0.81256 0.81253V24.375C0.812543 24.5837 0.892803 24.7844 1.03671 24.9355L9.65347 33.9828L0.16256 46.6375C0.0586352 46.7761 0.00169207 46.9442 3.71214e-05 47.1174C-0.00161782 47.2905 0.0521018 47.4597 0.15336 47.6002C0.254619 47.7407 0.398118 47.8451 0.562926 47.8983C0.727733 47.9515 0.905226 47.9507 1.06951 47.8959L18.132 42.2084V42.2076C18.2517 42.168 18.3605 42.101 18.4498 42.0121L30.6373 29.8246C30.7128 29.7492 30.7727 29.6596 30.8135 29.561C30.8543 29.4624 30.8752 29.3567 30.8751 29.25V18.0537L38.0282 19.4843C38.1678 19.5122 38.3122 19.503 38.4471 19.4575C38.582 19.4121 38.7025 19.332 38.7967 19.2253C38.8909 19.1186 38.9555 18.989 38.9838 18.8496C39.0122 18.7101 39.0034 18.5656 38.9584 18.4306ZM29.2501 27.2885L21.0554 19.0938L29.2501 10.899V27.2885ZM17.2281 39.5802L3.13662 24.784L18.9895 20.2044L17.2281 39.5802ZM19.7472 2.93519L24.1143 13.7368L19.9063 17.9447L15.324 13.3624L19.7472 2.93519ZM18.3587 18.6951L2.43756 23.2946V2.77401L18.3587 18.6951ZM10.7899 35.1762L16.4042 41.0713L3.02317 45.5317L10.7899 35.1762ZM18.8873 39.2762L20.5583 20.8949L28.9136 29.25L18.8873 39.2762ZM30.8751 16.3964V10.1697L35.0947 11.9781L36.9736 17.6162L30.8751 16.3964Z" fill="black"/>
</svg>
