<svg width="28" height="28" viewBox="0 0 28 28" fill="none" xmlns="http://www.w3.org/2000/svg">
<g clip-path="url(#clip0)">
<path d="M27.5629 12.2488C27.3375 12.1073 25.5716 11.0494 24.8697 10.7284L24.0001 8.62882C24.2585 7.93456 24.7521 5.98698 24.8293 5.64934C24.9008 5.33631 24.8065 5.00851 24.5794 4.78145L23.2194 3.42154C22.9924 3.19448 22.6645 3.10009 22.3516 3.17162C22.0955 3.23019 20.097 3.73107 19.3721 4.0009L17.2725 3.1312C16.9652 2.45964 15.9389 0.735513 15.752 0.438069C15.5814 0.166108 15.2828 0.00100708 14.9616 0.00100708H13.0383C12.7172 0.00100708 12.4186 0.166108 12.2478 0.438069C12.1064 0.663435 11.0485 2.42935 10.7274 3.1312L8.62787 4.0009C7.93361 3.7425 5.98603 3.24884 5.64839 3.17162C5.33536 3.10014 5.00756 3.19453 4.7805 3.42154L3.42053 4.7815C3.19347 5.00857 3.09908 5.33636 3.17061 5.64939C3.22918 5.90544 3.73006 7.90394 3.99989 8.62887L3.1302 10.7284C2.45864 11.0357 0.734506 12.062 0.437062 12.2488C0.165101 12.4195 0 12.7181 0 13.0392V14.9626C0 15.2837 0.165101 15.5823 0.437062 15.7531C0.662428 15.8945 2.42834 16.9524 3.1302 17.2735L3.99989 19.373C3.74149 20.0673 3.24783 22.0149 3.17061 22.3525C3.09913 22.6655 3.19347 22.9933 3.42053 23.2204L4.7805 24.5804C5.00756 24.8074 5.33547 24.9019 5.64839 24.8303C5.90443 24.7717 7.90293 24.2708 8.62787 24.001L10.7274 24.8707C11.0347 25.5423 12.061 27.2664 12.2478 27.5638C12.4186 27.8358 12.7172 28.0009 13.0383 28.0009H14.9616C15.2828 28.0009 15.5814 27.8358 15.7521 27.5638C15.8936 27.3385 16.9515 25.5726 17.2725 24.8707L19.3721 24.001C20.0663 24.2594 22.0139 24.7531 22.3516 24.8303C22.6647 24.9019 22.9924 24.8074 23.2194 24.5804L24.5794 23.2204C24.8065 22.9933 24.9009 22.6655 24.8293 22.3525C24.7708 22.0965 24.2699 20.098 24.0001 19.373L24.8697 17.2735C25.5413 16.9662 27.2654 15.9399 27.5629 15.7531C27.8348 15.5823 27.9999 15.2837 27.9999 14.9626V13.0392C27.9999 12.7181 27.8348 12.4195 27.5629 12.2488ZM14 20.1043C10.6346 20.1043 7.89659 17.3663 7.89659 14.0009C7.89659 10.6355 10.6346 7.89759 14 7.89759C17.3654 7.89759 20.1034 10.6356 20.1034 14.001C20.1034 17.3664 17.3654 20.1043 14 20.1043Z" fill="black"/>
</g>
<defs>
<clipPath id="clip0">
<rect width="28" height="28" fill="white"/>
</clipPath>
</defs>
</svg>
