<svg width="26" height="28" viewBox="0 0 26 28" fill="none" xmlns="http://www.w3.org/2000/svg">
    <path d="M25.3011 12.2437C25.3005 12.2431 25.2999 12.2425 25.2993 12.2418L14.6923 1.22839C14.2402 0.758728 13.6391 0.5 12.9997 0.5C12.3603 0.5 11.7592 0.758522 11.3069 1.22819L0.70539 12.2361C0.701819 12.2398 0.698249 12.2437 0.694678 12.2474C-0.233762 13.217 -0.232175 14.7902 0.699241 15.7573C1.12478 16.1994 1.6868 16.4554 2.28771 16.4822C2.31211 16.4847 2.33671 16.4859 2.3615 16.4859H2.78426V24.5912C2.78426 26.195 4.04103 27.5 5.58605 27.5H9.73585C10.1564 27.5 10.4976 27.1459 10.4976 26.709V20.3545C10.4976 19.6226 11.071 19.0273 11.7758 19.0273H14.2235C14.9284 19.0273 15.5017 19.6226 15.5017 20.3545V26.709C15.5017 27.1459 15.8427 27.5 16.2635 27.5H20.4133C21.9583 27.5 23.2151 26.195 23.2151 24.5912V16.4859H23.6071C24.2463 16.4859 24.8474 16.2274 25.2999 15.7577C26.2323 14.789 26.2327 13.2131 25.3011 12.2437Z" fill="#1aa7a1"/>
</svg>
