<svg width="26" height="26" viewBox="0 0 26 26" fill="none" xmlns="http://www.w3.org/2000/svg">
<path d="M12.9999 0C5.8204 0 0 5.82042 0 13C0 20.1796 5.8204 26 12.9999 26C20.1795 26 25.9999 20.1796 25.9999 13C26 5.82042 20.1796 0 12.9999 0ZM20.4188 15.0882H14.8873V20.619C14.8873 21.5663 14.1197 22.3346 13.172 22.3346C12.2247 22.3346 11.4562 21.5663 11.4562 20.619V15.0882H5.92572C4.97806 15.0882 4.20978 14.3202 4.20978 13.3725C4.20978 12.4249 4.97806 11.6568 5.92572 11.6568H11.4566V6.12624C11.4566 5.17858 12.2247 4.41081 13.1723 4.41081C14.12 4.41081 14.888 5.17858 14.888 6.12624V11.6571H20.4188C21.3661 11.6571 22.1347 12.4252 22.1347 13.3728C22.1347 14.3206 21.3661 15.0882 20.4188 15.0882Z" fill="#1AA7A1"/>
</svg>
