<svg width="42" height="27" viewBox="0 0 42 27" fill="none" xmlns="http://www.w3.org/2000/svg">
<path d="M11 10.7594C13.4461 10.7594 15.4291 8.35088 15.4291 5.37975C15.4291 2.40856 14.7781 0 11 0C7.222 0 6.5708 2.40856 6.5708 5.37975C6.5708 8.35088 8.55388 10.7594 11 10.7594Z" fill="black"/>
<path d="M2.63436 18.9737C2.63355 18.7926 2.63274 18.9227 2.63436 18.9737V18.9737Z" fill="black"/>
<path d="M19.3654 19.115C19.3679 19.0654 19.3662 18.7709 19.3654 19.115V19.115Z" fill="black"/>
<path d="M19.356 18.7563C19.2739 13.5805 18.598 12.1057 13.4253 11.1721C13.4253 11.1721 12.6971 12.1 11 12.1C9.30285 12.1 8.57459 11.1721 8.57459 11.1721C3.45833 12.0955 2.74126 13.5484 2.64697 18.5881C2.63924 18.9997 2.63566 19.0213 2.63428 18.9735C2.63459 19.063 2.63497 19.2286 2.63497 19.5173C2.63497 19.5173 3.86647 21.9999 11 21.9999C18.1334 21.9999 19.365 19.5173 19.365 19.5173C19.365 19.3318 19.3652 19.2028 19.3653 19.1151C19.364 19.1446 19.3612 19.0873 19.356 18.7563Z" fill="black"/>
<path d="M31 10.7594C33.4461 10.7594 35.4291 8.35088 35.4291 5.37975C35.4291 2.40856 34.7781 0 31 0C27.222 0 26.5708 2.40856 26.5708 5.37975C26.5708 8.35088 28.5539 10.7594 31 10.7594Z" fill="black"/>
<path d="M22.6344 18.9737C22.6335 18.7926 22.6327 18.9227 22.6344 18.9737V18.9737Z" fill="black"/>
<path d="M39.3654 19.115C39.3679 19.0654 39.3662 18.7709 39.3654 19.115V19.115Z" fill="black"/>
<path d="M39.356 18.7563C39.2739 13.5805 38.598 12.1057 33.4253 11.1721C33.4253 11.1721 32.6971 12.1 31 12.1C29.3029 12.1 28.5746 11.1721 28.5746 11.1721C23.4583 12.0955 22.7413 13.5484 22.647 18.5881C22.6392 18.9997 22.6357 19.0213 22.6343 18.9735C22.6346 19.063 22.635 19.2286 22.635 19.5173C22.635 19.5173 23.8665 21.9999 31 21.9999C38.1334 21.9999 39.365 19.5173 39.365 19.5173C39.365 19.3318 39.3652 19.2028 39.3653 19.1151C39.364 19.1446 39.3612 19.0873 39.356 18.7563Z" fill="black"/>
<g clip-path="url(#clip0)">
<path d="M20.9999 13.6548C24.231 13.6548 26.6843 10.3943 26.6843 6.60243C26.6843 4.76992 26.496 3.00546 25.6725 1.69443C24.8191 0.335796 23.3441 -0.45 20.9999 -0.45C18.6558 -0.45 17.1807 0.335795 16.3272 1.69442C15.5037 3.00546 15.3154 4.76991 15.3154 6.60243C15.3154 10.3943 17.7687 13.6548 20.9999 13.6548Z" fill="black" stroke="white" stroke-width="0.9"/>
<mask id="path-14-outside-1" maskUnits="userSpaceOnUse" x="10.1122" y="22.1716" width="2" height="2" fill="black">
<rect fill="white" x="10.1122" y="22.1716" width="2" height="2"/>
<path d="M11.1133 23.2859C11.1123 23.0636 11.1114 23.2232 11.1133 23.2859V23.2859Z"/>
</mask>
<path d="M11.1133 23.2859C11.1123 23.0636 11.1114 23.2232 11.1133 23.2859V23.2859Z" fill="black"/>
<path d="M12.0133 23.282C12.013 23.2264 12.0128 23.1913 12.0125 23.1718C12.0125 23.167 12.0124 23.1609 12.0123 23.1547C12.0122 23.152 12.0121 23.1459 12.0118 23.1384C12.0116 23.1351 12.0113 23.1272 12.0107 23.1171C12.0104 23.1122 12.0098 23.103 12.0088 23.0915C12.0082 23.0854 12.0056 23.0552 11.999 23.0173C11.9968 23.0042 11.9874 22.9496 11.9647 22.8827C11.9504 22.8435 11.9026 22.7409 11.8659 22.6795C11.7814 22.5696 11.4545 22.3392 11.1988 22.2758C10.9052 22.2958 10.5003 22.5118 10.3883 22.6371C10.341 22.7079 10.2812 22.8265 10.264 22.8711C10.2377 22.9453 10.2275 23.0064 10.2254 23.0191C10.2185 23.0592 10.2159 23.0912 10.2154 23.0972C10.2144 23.1091 10.2139 23.1186 10.2136 23.1236C10.2127 23.1403 10.2125 23.154 10.2125 23.1552C10.2123 23.1631 10.2122 23.1702 10.2122 23.1736C10.2121 23.199 10.2123 23.2667 10.2137 23.3134L12.0129 23.2583C12.0124 23.2425 12.0121 23.199 12.0122 23.1844C12.0122 23.1828 12.0122 23.1861 12.0121 23.1915C12.0121 23.1931 12.012 23.1961 12.0119 23.1998C12.0118 23.2027 12.0115 23.2104 12.011 23.2203C12.0108 23.2252 12.0102 23.2346 12.0092 23.2464C12.0087 23.2522 12.0062 23.2841 11.9993 23.3243C11.9971 23.3369 11.987 23.398 11.9607 23.4722C11.9435 23.5168 11.8837 23.6354 11.8364 23.7061C11.7244 23.8315 11.3195 24.0475 11.0259 24.0675C10.7702 24.004 10.4433 23.7736 10.3588 23.6637C10.3221 23.6023 10.2743 23.4997 10.26 23.4605C10.2373 23.3937 10.228 23.3391 10.2257 23.326C10.2191 23.2882 10.2165 23.2581 10.216 23.2521C10.2149 23.2406 10.2144 23.2315 10.2141 23.2268C10.2135 23.2171 10.2132 23.2096 10.2131 23.2067C10.2128 23.2003 10.2127 23.1956 10.2127 23.1949C10.2126 23.1924 10.2127 23.1919 10.2127 23.1947C10.2128 23.2059 10.2131 23.2342 10.2133 23.2898L12.0133 23.282Z" fill="white" mask="url(#path-14-outside-1)"/>
<mask id="path-16-outside-2" maskUnits="userSpaceOnUse" x="29.8864" y="22.2576" width="2" height="2" fill="black">
<rect fill="white" x="29.8864" y="22.2576" width="2" height="2"/>
<path d="M30.8864 23.4595C30.8894 23.3987 30.8874 23.0372 30.8864 23.4595V23.4595Z"/>
</mask>
<path d="M30.8864 23.4595C30.8894 23.3987 30.8874 23.0372 30.8864 23.4595V23.4595Z" fill="black"/>
<path d="M31.7852 23.5043C31.7883 23.4437 31.7881 23.3106 31.7879 23.2734C31.7878 23.2667 31.7878 23.2595 31.7877 23.2527C31.7876 23.2495 31.7876 23.2447 31.7874 23.2392C31.7874 23.2365 31.7873 23.2321 31.7871 23.2268C31.787 23.2236 31.7865 23.2109 31.7854 23.1948C31.785 23.189 31.7835 23.1672 31.7798 23.1396C31.7783 23.1281 31.7737 23.0946 31.7639 23.0525C31.7583 23.0299 31.7414 22.973 31.7293 22.9389C31.7052 22.8815 31.6103 22.7212 31.5295 22.6267C31.3193 22.4679 30.7384 22.37 30.4252 22.4854C30.277 22.5963 30.1075 22.8087 30.0677 22.8863C30.0186 22.9947 30.0033 23.0897 30.0025 23.094C29.994 23.1402 29.9911 23.1775 29.9908 23.1814C29.989 23.2022 29.9884 23.2188 29.9882 23.2215C29.988 23.2276 29.9878 23.2326 29.9878 23.2355C29.9875 23.2456 29.9874 23.2559 29.9873 23.2623C29.9869 23.2916 29.9866 23.3522 29.9864 23.4573L31.7863 23.4617C31.7866 23.3557 31.7869 23.3031 31.7872 23.2833C31.7872 23.2774 31.7872 23.2795 31.7871 23.2848C31.787 23.2865 31.7869 23.2905 31.7867 23.2958C31.7866 23.2978 31.786 23.3138 31.7843 23.3342C31.784 23.338 31.7811 23.3751 31.7725 23.4213C31.7718 23.4255 31.7565 23.5205 31.7074 23.6289C31.6676 23.7065 31.4981 23.9188 31.3499 24.0297C31.0367 24.1451 30.4558 24.0472 30.2457 23.8884C30.1649 23.7939 30.0699 23.6337 30.0459 23.5763C30.0338 23.5422 30.0169 23.4853 30.0113 23.4627C30.0014 23.4207 29.9969 23.3872 29.9954 23.3757C29.9917 23.3482 29.9902 23.3266 29.9898 23.321C29.9873 23.285 29.9877 23.2503 29.9879 23.2833C29.988 23.3019 29.988 23.336 29.9878 23.3689C29.9875 23.4106 29.987 23.4231 29.9875 23.4147L31.7852 23.5043Z" fill="white" mask="url(#path-16-outside-2)"/>
<path d="M10.6673 23.2661C10.6673 23.2651 10.6676 23.2616 10.6681 23.2566C10.6685 23.2535 10.6693 23.2454 10.671 23.2349L10.6711 23.2345C10.6718 23.2298 10.6771 23.1956 10.6917 23.1551C10.6918 23.1548 10.6919 23.1545 10.6921 23.154C10.6964 23.1417 10.725 23.0595 10.801 22.9855C10.8477 22.9401 10.9453 22.8663 11.0913 22.8586C11.1036 22.858 11.1157 22.8578 11.1275 22.8581C11.1228 23.1101 11.1195 23.2314 11.1171 23.2803L10.6633 23.2874C10.6637 23.3966 10.6641 23.5993 10.6641 23.9532V24.0552L10.708 24.1472L11.1141 23.9532C10.708 24.1472 10.7083 24.1476 10.7085 24.1481L10.709 24.1491L10.71 24.1513L10.7126 24.1566L10.7197 24.1703C10.7252 24.1809 10.7324 24.1943 10.7415 24.2103C10.7598 24.2423 10.7855 24.2847 10.8202 24.336C10.8895 24.4387 10.9942 24.5765 11.1452 24.7373C11.4476 25.0594 11.9321 25.4698 12.6826 25.873C14.1829 26.6791 16.7327 27.4501 21 27.4501C25.2673 27.4501 27.8171 26.6791 29.3174 25.873C30.068 25.4698 30.5525 25.0594 30.8549 24.7373C31.0058 24.5765 31.1106 24.4387 31.1799 24.336C31.2145 24.2847 31.2403 24.2423 31.2585 24.2103C31.2677 24.1943 31.2749 24.1809 31.2804 24.1703L31.2874 24.1566L31.29 24.1513L31.2911 24.1491L31.2916 24.1481C31.2918 24.1477 31.292 24.1472 30.886 23.9532L31.292 24.1472L31.336 24.0552V23.9532C31.336 23.7257 31.3361 23.5678 31.3364 23.4605L30.884 23.4499C30.8821 23.4078 30.8793 23.2858 30.8753 23.0193C30.8753 23.0188 30.8753 23.0183 30.8753 23.0178C30.8877 23.0176 30.9004 23.0178 30.9134 23.0187C30.9134 23.0187 30.9134 23.0187 30.9134 23.0187C30.9328 23.0199 30.9528 23.0225 30.9733 23.0266C31.1178 23.0553 31.2011 23.1434 31.2326 23.1815C31.29 23.2512 31.3113 23.3217 31.3146 23.3324C31.3147 23.3328 31.3148 23.3331 31.3149 23.3334C31.3218 23.3554 31.3254 23.3732 31.3269 23.3812C31.3303 23.3981 31.3318 23.4113 31.3322 23.4152L31.3333 23.427C31.3335 23.4284 31.3335 23.4292 31.3335 23.4292C31.3336 23.4292 31.3331 23.4198 31.3323 23.3927C31.3306 23.3321 31.3283 23.2156 31.3252 23.0124V23.0124C31.2771 19.8583 31.0628 17.6746 29.9951 16.1543C28.9083 14.6068 27.016 13.8439 23.9492 13.2691L23.6753 13.2178L23.5092 13.4376L23.5072 13.44C23.504 13.444 23.4975 13.4518 23.4878 13.4628C23.4684 13.4848 23.4359 13.5198 23.39 13.5636C23.2981 13.6512 23.153 13.7732 22.9507 13.8968C22.549 14.1423 21.9128 14.4001 21 14.4001C20.0873 14.4001 19.4511 14.1423 19.0493 13.8968C18.847 13.7732 18.7018 13.6512 18.6099 13.5636C18.564 13.5198 18.5315 13.4848 18.5121 13.4628C18.5024 13.4517 18.4959 13.444 18.4927 13.44L18.4908 13.4376L18.3246 13.2178L18.0508 13.2691C15.0174 13.8376 13.1328 14.5902 12.0404 16.1044C10.9645 17.5956 10.7337 19.7312 10.6784 22.8048C10.6738 23.0578 10.6705 23.1863 10.6683 23.2434L10.6673 23.2661ZM10.6673 23.2661C10.6672 23.2665 10.6672 23.2665 10.6673 23.2662L10.6673 23.2661Z" fill="black" stroke="white" stroke-width="0.9"/>
</g>
<defs>
<clipPath id="clip0">
<rect x="8" width="26" height="27" fill="white"/>
</clipPath>
</defs>
</svg>
