<svg width="26" height="28" viewBox="0 0 26 28" fill="none" xmlns="http://www.w3.org/2000/svg">
<g clip-path="url(#clip0)">
<path d="M12.9999 13.7048C15.8907 13.7048 18.2343 10.7488 18.2343 7.10243C18.2343 3.45596 17.4649 0.5 12.9999 0.5C8.53498 0.5 7.76538 3.45596 7.76538 7.10243C7.76538 10.7488 10.109 13.7048 12.9999 13.7048Z" fill="black"/>
<path d="M22.763 23.3078C22.666 16.9557 21.8672 15.1457 15.754 14C15.754 14 14.8934 15.1387 12.8877 15.1387C10.882 15.1387 10.0213 14 10.0213 14C3.97485 15.1332 3.11329 17.1227 3.00186 23.3078C2.99273 23.8129 3.02124 23.5744 3.00097 23.5744C3.00134 23.6843 3.00179 23.8875 3.00179 24.2418C3.00179 24.2418 4.45719 27.2886 12.8877 27.2886C21.3181 27.2886 22.7737 24.2418 22.7737 24.2418C22.7737 24.0141 22.774 23.7482 22.774 23.7482C22.774 23.7482 22.7691 23.7141 22.763 23.3078Z" fill="black"/>
</g>
<defs>
<clipPath id="clip0">
<rect y="0.5" width="26" height="27" fill="white"/>
</clipPath>
</defs>
</svg>
