<svg width="26" height="26" viewBox="0 0 26 26" fill="none" xmlns="http://www.w3.org/2000/svg">
    <g clip-path="url(#clip0)">
        <path d="M9.40503 23.6545C10.0154 25.0343 11.3966 26 12.9999 26C14.6031 26 15.9843 25.0343 16.5947 23.6545H9.40503Z" fill="#1aa7a1"/>
        <path d="M12.9997 2.48405C14.0577 2.48405 15.0736 2.67072 16.0163 3.01249V2.89636C16.0163 1.2993 14.717 0 13.12 0H12.88C11.2829 0 9.98364 1.2993 9.98364 2.89636V3.01101C10.9259 2.67026 11.9414 2.48405 12.9997 2.48405Z" fill="#1aa7a1"/>
        <path d="M22.5204 22.1286H3.47963C3.1194 22.1286 2.78944 21.8856 2.71451 21.5332C2.64035 21.1843 2.79936 20.84 3.12194 20.691C3.1985 20.6413 3.7747 20.2384 4.35156 19.0194C5.41103 16.7809 5.63341 13.6275 5.63341 11.3763C5.63341 7.31445 8.93796 4.01 12.9997 4.01C17.0519 4.01 20.3504 7.29853 20.366 11.347C20.3664 11.3568 20.3666 11.3665 20.3666 11.3763C20.3666 13.6275 20.589 16.7809 21.6484 19.0194C22.2253 20.2384 22.8014 20.6414 22.8781 20.691C23.2006 20.84 23.3597 21.1843 23.2855 21.5332C23.2106 21.8856 22.8806 22.1286 22.5204 22.1286ZM22.8866 20.6963H22.8871H22.8866Z" fill="#1aa7a1"/>
    </g>
    <defs>
        <clipPath id="clip0">
            <rect width="26" height="26" fill="white"/>
        </clipPath>
    </defs>
</svg>
