<svg width="30" height="28" viewBox="0 0 30 28" fill="none" xmlns="http://www.w3.org/2000/svg">
<path d="M27.3914 6.82608H23.2566L20.8696 4.21737H11.7392V8.13041H7.82616V12.0434H3.91312V25.0869C3.91312 26.5217 5.08703 27.6956 6.52183 27.6956H27.3914C28.8262 27.6956 30.0001 26.5217 30.0001 25.0869V9.43474C30.0001 7.99999 28.8262 6.82608 27.3914 6.82608ZM16.9566 23.7826C13.3566 23.7826 10.4348 20.8608 10.4348 17.2608C10.4348 13.6608 13.3566 10.7391 16.9566 10.7391C20.5566 10.7391 23.4783 13.6609 23.4783 17.2609C23.4783 20.8609 20.5566 23.7826 16.9566 23.7826Z" fill="white"/>
<path d="M3.91304 10.7391H6.52176V6.82608H10.4348V4.21737H6.52176V0.304327H3.91304V4.21737H0V6.82608H3.91304V10.7391Z" fill="white"/>
<path d="M16.9568 13.0869C14.6481 13.0869 12.7829 14.9522 12.7829 17.2609C12.7829 19.5696 14.6481 21.4348 16.9568 21.4348C19.2655 21.4348 21.1307 19.5696 21.1307 17.2609C21.1307 14.9522 19.2655 13.0869 16.9568 13.0869Z" fill="white"/>
</svg>
