<svg width="10" height="20" viewBox="0 0 10 20" fill="none" xmlns="http://www.w3.org/2000/svg">
<path d="M9.9996 2.08329V0.416673C9.9996 0.246598 9.89624 0.0932017 9.73835 0.0301167C9.68792 0.00976547 9.63503 0 9.58297 0C9.47148 0 9.36242 0.0447649 9.28188 0.128592L0.11534 9.71176C-0.0384467 9.87289 -0.0384467 10.1268 0.11534 10.2879L9.28188 19.8711C9.39988 19.994 9.58054 20.0339 9.73843 19.9696C9.89632 19.9065 9.99968 19.7531 9.99968 19.583V17.9164C9.99968 17.8098 9.95898 17.7072 9.88573 17.6299L2.65678 9.99984L9.8857 2.36977C9.95894 2.29246 9.9996 2.18993 9.9996 2.08329Z" fill="black"/>
</svg>
