<svg width="22" height="28" viewBox="0 0 22 28" fill="none" xmlns="http://www.w3.org/2000/svg">
<path d="M14.6442 14.6509H7.77979L8.08925 8.55362L11.1325 1.37976L14.1196 8.7687L14.6442 14.6509Z" fill="#1AA7A1"/>
<path d="M10.0677 19.6848H6.86428L6.03541 20.0272L0.45752 27.4645L10.0677 24.2611V19.6848Z" fill="#009A95"/>
<path d="M10.0676 24.2611L16.932 17.3967V10.5323L21.5082 11.4475L20.1353 7.3289L16.932 5.95602L11.2116 11.6763L0.915039 1.37976V14.6509L6.0353 20.0272L10.0676 24.2611Z" fill="#57C3C1"/>
<path d="M0.915039 14.6508L11.2116 11.6763L10.0676 24.261L0.915039 14.6508Z" fill="#1AA7A1"/>
<path d="M11.2119 11.6764L16.9322 17.3967V5.95605L11.2119 11.6764Z" fill="#80CED0"/>
<path d="M21.9426 11.3028L20.5697 7.18418C20.5493 7.12287 20.5161 7.06658 20.4723 7.01902C20.4286 6.97146 20.3752 6.9337 20.3158 6.90823L17.1124 5.53535V5.53575C17.1107 5.53501 17.1092 5.53398 17.1075 5.53323C17.0239 5.49859 16.9319 5.48952 16.8431 5.50717C16.7543 5.52483 16.6728 5.56842 16.6088 5.63242L14.2849 7.95631L11.5566 1.20815C11.5227 1.12426 11.4647 1.05231 11.3898 1.0014C11.315 0.950493 11.2268 0.922909 11.1363 0.922136H11.1324C11.0425 0.922145 10.9547 0.948599 10.8798 0.998199C10.8048 1.0478 10.7462 1.11835 10.7111 1.20106L7.93287 7.75015L1.23888 1.05616C1.17488 0.99216 1.09334 0.948572 1.00457 0.930913C0.915796 0.913254 0.82378 0.922317 0.740158 0.956955C0.656536 0.991593 0.585063 1.05025 0.534779 1.12551C0.484494 1.20077 0.457657 1.28925 0.45766 1.37976V14.6509C0.45765 14.7684 0.502855 14.8815 0.583908 14.9666L5.43715 20.0623L0.0915591 27.1899C0.0330252 27.2679 0.000953026 27.3626 2.0908e-05 27.4601C-0.00091121 27.5577 0.0293454 27.6529 0.0863774 27.7321C0.143409 27.8112 0.224233 27.87 0.317058 27.9C0.409883 27.93 0.509852 27.9295 0.602384 27.8986L10.2125 24.6952V24.6948C10.2799 24.6725 10.3412 24.6348 10.3915 24.5847L17.2559 17.7203C17.2984 17.6778 17.3322 17.6274 17.3552 17.5718C17.3781 17.5163 17.3899 17.4568 17.3898 17.3967V11.0905L21.4187 11.8963C21.4973 11.912 21.5787 11.9068 21.6546 11.8812C21.7306 11.8556 21.7985 11.8105 21.8516 11.7504C21.9046 11.6903 21.941 11.6173 21.9569 11.5388C21.9729 11.4602 21.968 11.3789 21.9426 11.3028ZM16.4746 16.2919L11.8591 11.6763L16.4746 7.06079V16.2919ZM9.70342 23.2149L1.76664 14.8813L10.6955 12.3019L9.70342 23.2149ZM11.1222 2.57531L13.582 8.6591L11.2119 11.0292L8.63098 8.44825L11.1222 2.57531ZM10.3402 11.4518L1.37291 14.0424V2.48453L10.3402 11.4518ZM6.07719 20.7345L9.23939 24.0548L1.70275 26.567L6.07719 20.7345ZM10.638 23.0437L11.5791 12.6908L16.2851 17.3967L10.638 23.0437ZM17.3898 10.1571V6.65001L19.7664 7.66857L20.8247 10.8442L17.3898 10.1571Z" fill="black"/>
</svg>
