<svg width="15" height="15" viewBox="0 0 15 15" fill="none" xmlns="http://www.w3.org/2000/svg">
<g clip-path="url(#clip0)">
<path d="M7.49999 -7.62939e-06C3.50247 -7.62939e-06 0.921508 4.2362 2.71514 7.77858L5.46819 13.7036C6.27187 15.4334 8.72932 15.4309 9.53182 13.7036L12.2849 7.77852C14.0778 4.23756 11.4993 -7.62939e-06 7.49999 -7.62939e-06V-7.62939e-06ZM11.4408 7.35897C11.4352 7.36981 11.5654 7.09002 8.677 13.3064C8.21076 14.3097 6.78972 14.3107 6.32304 13.3064C3.44553 7.11347 3.56504 7.37034 3.55932 7.35903C2.08895 4.46644 4.17777 0.942616 7.49999 0.942616C10.8203 0.942616 12.9121 4.46414 11.4408 7.35897Z" fill="#757575"/>
<path d="M7.50016 2.74149C6.05615 2.74149 4.88135 3.91629 4.88135 5.36029C4.88135 6.8043 6.05615 7.9791 7.50016 7.9791C8.94417 7.9791 10.119 6.8043 10.119 5.36029C10.119 3.91629 8.94419 2.74149 7.50016 2.74149ZM7.50016 7.03651C6.57589 7.03651 5.82397 6.28459 5.82397 5.36032C5.82397 4.43605 6.57589 3.68414 7.50016 3.68414C8.42443 3.68414 9.17634 4.43605 9.17634 5.36032C9.17634 6.28459 8.42443 7.03651 7.50016 7.03651Z" fill="#757575"/>
</g>
<defs>
<clipPath id="clip0">
<rect width="15" height="15" fill="white"/>
</clipPath>
</defs>
</svg>
