<svg width="20" height="26" viewBox="0 0 20 26" fill="none" xmlns="http://www.w3.org/2000/svg">
<path d="M2.36486 25.2348L2.3485 25.2481L2.33331 25.2626L2.32232 25.2732C1.99113 25.5163 1.54339 25.5658 1.11637 25.3853C0.742973 25.2142 0.5 24.8291 0.5 24.43V2.51208C0.5 1.4252 1.43361 0.5 2.61438 0.5H17.3856C18.5664 0.5 19.5 1.4252 19.5 2.51208V24.3986C19.5 24.7993 19.255 25.186 18.879 25.356L18.8613 25.364L18.8443 25.3733C18.6894 25.4584 18.5108 25.5 18.366 25.5C18.1298 25.5 17.8837 25.4195 17.6752 25.2708L17.6667 25.2626L17.6515 25.2481L17.6351 25.2348L10.3149 19.3L10 19.0447L9.68512 19.3L2.36486 25.2348Z" fill="#1AA7A1" stroke="#1AA7A1"/>
</svg>
