<svg width="22" height="27" viewBox="0 0 22 27" fill="none" xmlns="http://www.w3.org/2000/svg">
<path d="M14.6439 13.7288H7.77954L8.08901 7.6315L11.1322 0.457642L14.1194 7.84659L14.6439 13.7288Z" fill="white"/>
<path d="M10.0677 18.7627H6.86428L6.03541 19.1051L0.45752 26.5423L10.0677 23.339V18.7627Z" fill="white"/>
<path d="M10.0678 23.3389L16.9322 16.4746V9.61016L21.5085 10.5254L20.1356 6.40678L16.9322 5.0339L11.2119 10.7542L0.915283 0.457642V13.7288L6.03555 19.1051L10.0678 23.3389Z" fill="white"/>
<path d="M0.915283 13.7288L11.2119 10.7542L10.0678 23.3389L0.915283 13.7288Z" fill="white"/>
<path d="M11.2119 10.7542L16.9322 16.4745V5.03387L11.2119 10.7542Z" fill="white"/>
<path d="M21.9426 10.3807L20.5697 6.26206C20.5493 6.20075 20.5161 6.14446 20.4723 6.0969C20.4286 6.04934 20.3752 6.01158 20.3158 5.98611L17.1124 4.61323V4.61363C17.1107 4.61289 17.1092 4.61186 17.1075 4.61111C17.0239 4.57647 16.9319 4.5674 16.8431 4.58506C16.7543 4.60271 16.6728 4.6463 16.6088 4.7103L14.2849 7.03419L11.5566 0.286033C11.5227 0.202141 11.4647 0.130193 11.3898 0.0792836C11.315 0.0283742 11.2268 0.000789659 11.1363 1.68763e-05H11.1324C11.0425 2.61236e-05 10.9547 0.0264798 10.8798 0.0760797C10.8048 0.12568 10.7462 0.196232 10.7111 0.27894L7.93287 6.82803L1.23888 0.134044C1.17488 0.0700406 1.09334 0.0264533 1.00457 0.00879428C0.915796 -0.0088647 0.82378 0.000197827 0.740158 0.0348358C0.656536 0.0694738 0.585063 0.128132 0.534779 0.203391C0.484494 0.27865 0.457657 0.367131 0.45766 0.457643V13.7288C0.45765 13.8463 0.502855 13.9593 0.583908 14.0444L5.43715 19.1402L0.0915591 26.2678C0.0330252 26.3458 0.000953026 26.4405 2.0908e-05 26.538C-0.00091121 26.6355 0.0293454 26.7308 0.0863774 26.8099C0.143409 26.8891 0.224233 26.9479 0.317058 26.9779C0.409883 27.0078 0.509852 27.0074 0.602384 26.9765L10.2125 23.7731V23.7727C10.2799 23.7503 10.3412 23.7126 10.3915 23.6625L17.2559 16.7982C17.2984 16.7557 17.3322 16.7053 17.3552 16.6497C17.3781 16.5942 17.3899 16.5347 17.3898 16.4746V10.1684L21.4187 10.9742C21.4973 10.9899 21.5787 10.9847 21.6546 10.9591C21.7306 10.9335 21.7985 10.8884 21.8516 10.8283C21.9046 10.7682 21.941 10.6952 21.9569 10.6167C21.9729 10.5381 21.968 10.4567 21.9426 10.3807ZM16.4746 15.3697L11.8591 10.7542L16.4746 6.13867V15.3697ZM9.70342 22.2928L1.76664 13.9592L10.6955 11.3797L9.70342 22.2928ZM11.1222 1.65319L13.582 7.73699L11.2119 10.107L8.63098 7.52613L11.1222 1.65319ZM10.3402 10.5297L1.37291 13.1203V1.56241L10.3402 10.5297ZM6.07719 19.8124L9.23939 23.1327L1.70275 25.6449L6.07719 19.8124ZM10.638 22.1216L11.5791 11.7687L16.2851 16.4746L10.638 22.1216ZM17.3898 9.23497V5.72789L19.7664 6.74645L20.8247 9.92204L17.3898 9.23497Z" fill="#1AA7A1"/>
</svg>
