<svg width="22" height="22" viewBox="0 0 22 22" fill="none" xmlns="http://www.w3.org/2000/svg">
<path d="M8.24998 21C8.24998 21.5523 8.6977 22 9.24998 22H12.75C13.3023 22 13.75 21.5523 13.75 21V14.75C13.75 14.1977 14.1977 13.75 14.75 13.75H21C21.5523 13.75 22 13.3023 22 12.75V9.24998C22 8.6977 21.5523 8.24998 21 8.24998H14.75C14.1977 8.24998 13.75 7.80227 13.75 7.24998V1C13.75 0.447715 13.3023 0 12.75 0H9.24998C8.6977 0 8.24998 0.447715 8.24998 1V7.24998C8.24998 7.80227 7.80227 8.24998 7.24998 8.24998H1C0.447716 8.24998 0 8.6977 0 9.24998V12.75C0 13.3023 0.447715 13.75 1 13.75H7.24998C7.80227 13.75 8.24998 14.1977 8.24998 14.75V21Z" fill="#A8A8A8"/>
</svg>
