<svg width="20" height="20" viewBox="0 0 20 20" fill="none" xmlns="http://www.w3.org/2000/svg">
<path d="M11.8323 10.0184L19.6199 2.23059C20.1267 1.72402 20.1267 0.90497 19.6199 0.398404C19.1134 -0.108163 18.2943 -0.108163 17.7877 0.398404L9.99989 8.18625L2.21229 0.398404C1.70548 -0.108163 0.88667 -0.108163 0.380103 0.398404C-0.126701 0.90497 -0.126701 1.72402 0.380103 2.23059L8.16771 10.0184L0.380103 17.8063C-0.126701 18.3128 -0.126701 19.1319 0.380103 19.6385C0.632556 19.8911 0.964494 20.0181 1.29619 20.0181C1.62789 20.0181 1.9596 19.8911 2.21229 19.6385L9.99989 11.8506L17.7877 19.6385C18.0404 19.8911 18.3721 20.0181 18.7038 20.0181C19.0355 20.0181 19.3672 19.8911 19.6199 19.6385C20.1267 19.1319 20.1267 18.3128 19.6199 17.8063L11.8323 10.0184Z" fill="black"/>
</svg>
